<?xml version="1.0"?>
<svg width="154.3" height="45.4" xmlns="http://www.w3.org/2000/svg" xmlns:svg="http://www.w3.org/2000/svg" enable-background="new 0 0 154.3 45.4" version="1.0" xml:space="preserve">
 <style type="text/css">.st0{fill:#081828;}
	.st1{fill:#2ED06E;}</style>
 <g class="layer">
  <title>Layer 1</title>
  <path class="st1" d="m22.4,2.3c-11.6,0 -21,9.4 -21,21c0,11.6 9.4,21 21,21c11.6,0 21,-9.4 21,-21c0.1,-11.6 -9.4,-21 -21,-21zm-0.4,32.2c-0.3,0.6 -0.7,1.1 -1.2,1.4c0,-0.6 -0.2,-1.1 -0.6,-1.6c-0.2,-0.3 -0.6,-0.7 -1.2,-1.1l-0.3,-0.2c-0.7,-0.6 -1.3,-1.1 -1.5,-1.5c-0.5,-0.6 -0.8,-1.3 -0.8,-2c-0.1,-1.4 0.3,-2.8 1,-4.3c0.2,0.6 0.5,1.3 0.9,1.8c0.3,0.4 0.7,0.9 1.3,1.5l0.6,0.6c0.7,0.7 1.2,1.3 1.5,1.6c0.5,0.5 0.7,1.1 0.7,1.9c0,0.7 -0.1,1.3 -0.4,1.9zm0.5,-5.9c-0.2,-0.2 -0.4,-0.3 -0.6,-0.5l-0.3,-0.2c-1,-0.5 -1.9,-1.2 -2.5,-1.9c-0.6,-0.6 -1.1,-1.3 -1.4,-2c-0.3,-0.6 -0.5,-1.3 -0.5,-2c-0.1,-0.6 0,-1.2 0.1,-1.9c0.1,-0.5 0.3,-1 0.6,-1.6c0.2,-0.4 0.4,-0.9 0.6,-1.3c0.2,-0.3 0.4,-0.6 0.6,-0.8l0.3,-0.3c0.2,-0.3 0.4,-0.5 0.5,-0.7c0.5,-0.8 1,-1.5 1.2,-2.2c0.3,-0.8 0.3,-1.7 0.2,-2.6c1.2,1 1.9,2.1 2.1,3.4c0.3,1.3 0.1,2.6 -0.6,3.9c-0.2,0.2 -0.4,0.6 -0.6,1c-0.5,0.8 -0.9,1.5 -1,1.9c-0.5,1.4 -0.4,2.9 0.5,4.6l1.5,3.9c-0.1,-0.1 -0.3,-0.4 -0.7,-0.7zm5.2,2.7c-0.4,0.8 -0.8,1.4 -1.4,2c-0.5,0.5 -1.2,1 -2,1.4l0.3,-0.6c0.7,-1.4 1,-2.8 0.8,-4.2c-0.2,-1.3 -0.7,-2.6 -1.7,-4c-0.8,-1.2 -1.1,-2.5 -0.7,-4c0.2,-1 0.8,-2 1.7,-3c-0.1,0.9 0.1,1.8 0.5,2.6c0.2,0.5 0.7,1.3 1.3,2.2l0.1,0.1c0.6,0.9 1.1,1.7 1.4,2.3c0.4,0.8 0.5,1.5 0.5,2.3c-0.1,0.8 -0.3,1.8 -0.8,2.9z" id="svg_7"/>
  <text fill="#000000" font-family="Helvetica" font-size="26" font-weight="bold" id="svg_8" stroke="#000000" stroke-width="0" text-anchor="middle" x="100.15" xml:space="preserve" y="31.7">Ultrapnc</text>
 </g>
</svg>